<svg width="299" height="76" viewBox="0 0 299 76" fill="none" xmlns="http://www.w3.org/2000/svg">
<path d="M4.49523 59V29.54H10.1952L10.6752 34.76H10.9152C11.9552 32.84 13.2152 31.38 14.6952 30.38C16.1752 29.34 17.6952 28.82 19.2552 28.82C20.6552 28.82 21.7752 29.02 22.6152 29.42L21.4152 35.42C20.8952 35.26 20.4152 35.14 19.9752 35.06C19.5352 34.98 18.9952 34.94 18.3552 34.94C17.1952 34.94 15.9752 35.4 14.6952 36.32C13.4152 37.2 12.3152 38.76 11.3952 41V59H4.49523ZM38.3521 59.72C36.5121 59.72 34.7521 59.38 33.0721 58.7C31.3921 58.02 29.8921 57.02 28.5721 55.7C27.2921 54.38 26.2721 52.76 25.5121 50.84C24.7521 48.92 24.3721 46.74 24.3721 44.3C24.3721 41.86 24.7521 39.68 25.5121 37.76C26.2721 35.84 27.2921 34.22 28.5721 32.9C29.8921 31.58 31.3921 30.58 33.0721 29.9C34.7521 29.18 36.5121 28.82 38.3521 28.82C40.1921 28.82 41.9521 29.18 43.6321 29.9C45.3521 30.58 46.8521 31.58 48.1321 32.9C49.4121 34.22 50.4321 35.84 51.1921 37.76C51.9921 39.68 52.3921 41.86 52.3921 44.3C52.3921 46.74 51.9921 48.92 51.1921 50.84C50.4321 52.76 49.4121 54.38 48.1321 55.7C46.8521 57.02 45.3521 58.02 43.6321 58.7C41.9521 59.38 40.1921 59.72 38.3521 59.72ZM38.3521 54.08C40.5121 54.08 42.2121 53.2 43.4521 51.44C44.6921 49.64 45.3121 47.26 45.3121 44.3C45.3121 41.3 44.6921 38.92 43.4521 37.16C42.2121 35.36 40.5121 34.46 38.3521 34.46C36.1921 34.46 34.4921 35.36 33.2521 37.16C32.0521 38.92 31.4521 41.3 31.4521 44.3C31.4521 47.26 32.0521 49.64 33.2521 51.44C34.4921 53.2 36.1921 54.08 38.3521 54.08ZM65.9418 59.72C63.4618 59.72 61.7218 58.98 60.7218 57.5C59.7218 56.02 59.2218 54 59.2218 51.44V16.64H66.1218V51.8C66.1218 52.64 66.2818 53.24 66.6018 53.6C66.9218 53.92 67.2618 54.08 67.6218 54.08C67.7818 54.08 67.9218 54.08 68.0418 54.08C68.2018 54.08 68.4218 54.04 68.7018 53.96L69.6018 59.12C68.6818 59.52 67.4618 59.72 65.9418 59.72ZM82.2309 59.72C79.7509 59.72 78.0109 58.98 77.0109 57.5C76.0109 56.02 75.5109 54 75.5109 51.44V16.64H82.4109V51.8C82.4109 52.64 82.5709 53.24 82.8909 53.6C83.2109 53.92 83.5509 54.08 83.9109 54.08C84.0709 54.08 84.2109 54.08 84.3309 54.08C84.4909 54.08 84.7109 54.04 84.9909 53.96L85.8909 59.12C84.9709 59.52 83.7509 59.72 82.2309 59.72ZM106.08 59.72C104.72 59.72 103.34 59.4 101.94 58.76C100.58 58.08 99.2799 57.12 98.0399 55.88H97.8599L97.2599 59H91.7999V16.64H98.6999V27.56L98.5199 32.48C99.7599 31.4 101.1 30.52 102.54 29.84C104.02 29.16 105.52 28.82 107.04 28.82C108.88 28.82 110.52 29.18 111.96 29.9C113.4 30.58 114.62 31.58 115.62 32.9C116.62 34.18 117.38 35.74 117.9 37.58C118.42 39.42 118.68 41.48 118.68 43.76C118.68 46.28 118.32 48.54 117.6 50.54C116.92 52.5 116 54.16 114.84 55.52C113.68 56.88 112.34 57.92 110.82 58.64C109.3 59.36 107.72 59.72 106.08 59.72ZM104.64 54.02C106.6 54.02 108.24 53.18 109.56 51.5C110.88 49.78 111.54 47.24 111.54 43.88C111.54 40.92 111.04 38.62 110.04 36.98C109.04 35.34 107.42 34.52 105.18 34.52C103.1 34.52 100.94 35.62 98.6999 37.82V51.56C99.7399 52.48 100.76 53.12 101.76 53.48C102.8 53.84 103.76 54.02 104.64 54.02ZM137.669 59.72C135.829 59.72 134.069 59.38 132.389 58.7C130.709 58.02 129.209 57.02 127.889 55.7C126.609 54.38 125.589 52.76 124.829 50.84C124.069 48.92 123.689 46.74 123.689 44.3C123.689 41.86 124.069 39.68 124.829 37.76C125.589 35.84 126.609 34.22 127.889 32.9C129.209 31.58 130.709 30.58 132.389 29.9C134.069 29.18 135.829 28.82 137.669 28.82C139.509 28.82 141.269 29.18 142.949 29.9C144.669 30.58 146.169 31.58 147.449 32.9C148.729 34.22 149.749 35.84 150.509 37.76C151.309 39.68 151.709 41.86 151.709 44.3C151.709 46.74 151.309 48.92 150.509 50.84C149.749 52.76 148.729 54.38 147.449 55.7C146.169 57.02 144.669 58.02 142.949 58.7C141.269 59.38 139.509 59.72 137.669 59.72ZM137.669 54.08C139.829 54.08 141.529 53.2 142.769 51.44C144.009 49.64 144.629 47.26 144.629 44.3C144.629 41.3 144.009 38.92 142.769 37.16C141.529 35.36 139.829 34.46 137.669 34.46C135.509 34.46 133.809 35.36 132.569 37.16C131.369 38.92 130.769 41.3 130.769 44.3C130.769 47.26 131.369 49.64 132.569 51.44C133.809 53.2 135.509 54.08 137.669 54.08ZM170.598 59.72C168.758 59.72 166.998 59.38 165.318 58.7C163.638 58.02 162.138 57.02 160.818 55.7C159.538 54.38 158.518 52.76 157.758 50.84C156.998 48.92 156.618 46.74 156.618 44.3C156.618 41.86 156.998 39.68 157.758 37.76C158.518 35.84 159.538 34.22 160.818 32.9C162.138 31.58 163.638 30.58 165.318 29.9C166.998 29.18 168.758 28.82 170.598 28.82C172.438 28.82 174.198 29.18 175.878 29.9C177.598 30.58 179.098 31.58 180.378 32.9C181.658 34.22 182.678 35.84 183.438 37.76C184.238 39.68 184.638 41.86 184.638 44.3C184.638 46.74 184.238 48.92 183.438 50.84C182.678 52.76 181.658 54.38 180.378 55.7C179.098 57.02 177.598 58.02 175.878 58.7C174.198 59.38 172.438 59.72 170.598 59.72ZM170.598 54.08C172.758 54.08 174.458 53.2 175.698 51.44C176.938 49.64 177.558 47.26 177.558 44.3C177.558 41.3 176.938 38.92 175.698 37.16C174.458 35.36 172.758 34.46 170.598 34.46C168.438 34.46 166.738 35.36 165.498 37.16C164.298 38.92 163.698 41.3 163.698 44.3C163.698 47.26 164.298 49.64 165.498 51.44C166.738 53.2 168.438 54.08 170.598 54.08ZM191.468 59V16.64H198.248V43.1H198.428L209.348 29.54H216.908L206.828 41.54L217.928 59H210.428L202.868 46.22L198.248 51.5V59H191.468ZM222.816 59V29.54H229.716V59H222.816ZM226.296 24.38C225.056 24.38 224.036 24.02 223.236 23.3C222.436 22.58 222.036 21.64 222.036 20.48C222.036 19.32 222.436 18.38 223.236 17.66C224.036 16.9 225.056 16.52 226.296 16.52C227.536 16.52 228.556 16.9 229.356 17.66C230.156 18.38 230.556 19.32 230.556 20.48C230.556 21.64 230.156 22.58 229.356 23.3C228.556 24.02 227.536 24.38 226.296 24.38ZM238.519 59V29.54H244.219L244.699 33.5H244.939C246.259 32.22 247.679 31.12 249.199 30.2C250.759 29.28 252.559 28.82 254.599 28.82C257.759 28.82 260.059 29.84 261.499 31.88C262.939 33.88 263.659 36.76 263.659 40.52V59H256.759V41.42C256.759 38.98 256.399 37.26 255.679 36.26C254.959 35.26 253.779 34.76 252.139 34.76C250.859 34.76 249.719 35.08 248.719 35.72C247.759 36.32 246.659 37.22 245.419 38.42V59H238.519ZM282.353 72.02C280.593 72.02 278.953 71.86 277.433 71.54C275.953 71.22 274.673 70.74 273.593 70.1C272.513 69.46 271.653 68.66 271.013 67.7C270.413 66.74 270.113 65.62 270.113 64.34C270.113 63.1 270.473 61.94 271.193 60.86C271.913 59.82 272.953 58.88 274.313 58.04V57.8C273.553 57.32 272.913 56.68 272.393 55.88C271.913 55.08 271.673 54.08 271.673 52.88C271.673 51.72 271.993 50.68 272.633 49.76C273.313 48.8 274.073 48.02 274.913 47.42V47.18C273.913 46.42 273.013 45.38 272.213 44.06C271.453 42.7 271.073 41.14 271.073 39.38C271.073 37.7 271.393 36.2 272.033 34.88C272.673 33.56 273.513 32.46 274.553 31.58C275.633 30.66 276.873 29.98 278.273 29.54C279.673 29.06 281.153 28.82 282.713 28.82C283.513 28.82 284.273 28.9 284.993 29.06C285.753 29.18 286.433 29.34 287.033 29.54H297.593V34.64H292.193C292.673 35.2 293.073 35.92 293.393 36.8C293.713 37.64 293.873 38.58 293.873 39.62C293.873 41.26 293.573 42.7 292.973 43.94C292.413 45.18 291.633 46.22 290.633 47.06C289.633 47.9 288.453 48.54 287.093 48.98C285.733 49.42 284.273 49.64 282.713 49.64C282.073 49.64 281.413 49.58 280.733 49.46C280.053 49.34 279.373 49.14 278.693 48.86C278.253 49.26 277.893 49.66 277.613 50.06C277.373 50.46 277.253 51 277.253 51.68C277.253 52.52 277.593 53.18 278.273 53.66C278.993 54.14 280.253 54.38 282.053 54.38H287.273C290.833 54.38 293.513 54.96 295.313 56.12C297.153 57.24 298.073 59.08 298.073 61.64C298.073 63.08 297.693 64.44 296.933 65.72C296.213 67 295.173 68.1 293.813 69.02C292.453 69.94 290.793 70.66 288.833 71.18C286.913 71.74 284.753 72.02 282.353 72.02ZM282.713 45.32C284.113 45.32 285.313 44.82 286.313 43.82C287.313 42.78 287.813 41.3 287.813 39.38C287.813 37.54 287.313 36.12 286.313 35.12C285.353 34.08 284.153 33.56 282.713 33.56C281.273 33.56 280.053 34.06 279.053 35.06C278.053 36.06 277.553 37.5 277.553 39.38C277.553 41.3 278.053 42.78 279.053 43.82C280.053 44.82 281.273 45.32 282.713 45.32ZM283.433 67.52C285.833 67.52 287.753 67.04 289.193 66.08C290.673 65.16 291.413 64.06 291.413 62.78C291.413 61.62 290.953 60.84 290.033 60.44C289.153 60.04 287.873 59.84 286.193 59.84H282.173C280.573 59.84 279.233 59.7 278.153 59.42C276.633 60.58 275.873 61.88 275.873 63.32C275.873 64.64 276.533 65.66 277.853 66.38C279.213 67.14 281.073 67.52 283.433 67.52Z" fill="#424D57"/>
</svg>
