<svg width="235" height="42" viewBox="0 0 235 42" fill="none" xmlns="http://www.w3.org/2000/svg">
<path d="M2.08047 32C0.747136 32 0.0804689 31.3333 0.0804689 30V12.12C0.0804689 10.7867 0.747136 10.12 2.08047 10.12C3.4138 10.12 4.08047 10.7867 4.08047 12.12V12.88C4.88047 11.9467 5.8538 11.2133 7.00047 10.68C8.1738 10.1467 9.44047 9.88 10.8005 9.88C12.4005 9.88 13.5871 10.1467 14.3605 10.68C15.1605 11.1867 15.4671 11.8 15.2805 12.52C15.1471 13.08 14.8805 13.4533 14.4805 13.64C14.0805 13.8 13.6138 13.8267 13.0805 13.72C11.3738 13.3733 9.84047 13.3467 8.48047 13.64C7.12047 13.9333 6.04047 14.48 5.24047 15.28C4.46714 16.08 4.08047 17.0933 4.08047 18.32V30C4.08047 31.3333 3.4138 32 2.08047 32ZM27.852 32.16C25.692 32.16 23.7854 31.6933 22.132 30.76C20.4787 29.8 19.172 28.4933 18.212 26.84C17.2787 25.16 16.812 23.24 16.812 21.08C16.812 18.8933 17.2787 16.9733 18.212 15.32C19.172 13.64 20.4787 12.3333 22.132 11.4C23.7854 10.44 25.692 9.96 27.852 9.96C29.9854 9.96 31.8787 10.44 33.532 11.4C35.1854 12.3333 36.4787 13.64 37.412 15.32C38.372 16.9733 38.852 18.8933 38.852 21.08C38.852 23.24 38.3854 25.16 37.452 26.84C36.5187 28.4933 35.2254 29.8 33.572 30.76C31.9187 31.6933 30.012 32.16 27.852 32.16ZM27.852 28.56C29.2387 28.56 30.4654 28.24 31.532 27.6C32.5987 26.96 33.4254 26.08 34.012 24.96C34.6254 23.84 34.932 22.5467 34.932 21.08C34.932 19.6133 34.6254 18.32 34.012 17.2C33.4254 16.0533 32.5987 15.16 31.532 14.52C30.4654 13.88 29.2387 13.56 27.852 13.56C26.4654 13.56 25.2387 13.88 24.172 14.52C23.1054 15.16 22.2654 16.0533 21.652 17.2C21.0387 18.32 20.732 19.6133 20.732 21.08C20.732 22.5467 21.0387 23.84 21.652 24.96C22.2654 26.08 23.1054 26.96 24.172 27.6C25.2387 28.24 26.4654 28.56 27.852 28.56ZM50.1242 32C48.9509 32 47.9109 31.68 47.0042 31.04C46.0976 30.4 45.3909 29.5333 44.8842 28.44C44.3776 27.32 44.1242 26.04 44.1242 24.6V2.76C44.1242 2.17333 44.3109 1.69333 44.6842 1.32C45.0576 0.946666 45.5376 0.759999 46.1242 0.759999C46.7109 0.759999 47.1909 0.946666 47.5642 1.32C47.9376 1.69333 48.1242 2.17333 48.1242 2.76V24.6C48.1242 25.5867 48.3109 26.4 48.6842 27.04C49.0576 27.68 49.5376 28 50.1242 28H51.1242C51.6576 28 52.0842 28.1867 52.4042 28.56C52.7509 28.9333 52.9242 29.4133 52.9242 30C52.9242 30.5867 52.6709 31.0667 52.1642 31.44C51.6576 31.8133 51.0042 32 50.2042 32H50.1242ZM62.1164 32C60.9431 32 59.9031 31.68 58.9964 31.04C58.0897 30.4 57.3831 29.5333 56.8764 28.44C56.3697 27.32 56.1164 26.04 56.1164 24.6V2.76C56.1164 2.17333 56.3031 1.69333 56.6764 1.32C57.0497 0.946666 57.5297 0.759999 58.1164 0.759999C58.7031 0.759999 59.1831 0.946666 59.5564 1.32C59.9297 1.69333 60.1164 2.17333 60.1164 2.76V24.6C60.1164 25.5867 60.3031 26.4 60.6764 27.04C61.0497 27.68 61.5297 28 62.1164 28H63.1164C63.6497 28 64.0764 28.1867 64.3964 28.56C64.7431 28.9333 64.9164 29.4133 64.9164 30C64.9164 30.5867 64.6631 31.0667 64.1564 31.44C63.6497 31.8133 62.9964 32 62.1964 32H62.1164ZM79.9086 32.16C77.8286 32.16 75.9619 31.68 74.3086 30.72C72.6553 29.7333 71.3486 28.4 70.3886 26.72C69.4286 25.04 68.9353 23.1467 68.9086 21.04V2.8C68.9086 2.18667 69.0953 1.69333 69.4686 1.32C69.8686 0.946666 70.3619 0.759999 70.9486 0.759999C71.5619 0.759999 72.0553 0.946666 72.4286 1.32C72.8019 1.69333 72.9886 2.18667 72.9886 2.8V13.6C73.9219 12.48 75.0419 11.6 76.3486 10.96C77.6819 10.2933 79.1353 9.96 80.7086 9.96C82.6553 9.96 84.4019 10.4533 85.9486 11.44C87.4953 12.4 88.7086 13.72 89.5886 15.4C90.4953 17.0533 90.9486 18.9333 90.9486 21.04C90.9486 23.1467 90.4553 25.04 89.4686 26.72C88.5086 28.4 87.2019 29.7333 85.5486 30.72C83.8953 31.68 82.0153 32.16 79.9086 32.16ZM79.9086 28.56C81.2686 28.56 82.4819 28.24 83.5486 27.6C84.6153 26.9333 85.4553 26.0267 86.0686 24.88C86.7086 23.7333 87.0286 22.4533 87.0286 21.04C87.0286 19.6 86.7086 18.32 86.0686 17.2C85.4553 16.08 84.6153 15.2 83.5486 14.56C82.4819 13.8933 81.2686 13.56 79.9086 13.56C78.5753 13.56 77.3619 13.8933 76.2686 14.56C75.2019 15.2 74.3619 16.08 73.7486 17.2C73.1353 18.32 72.8286 19.6 72.8286 21.04C72.8286 22.4533 73.1353 23.7333 73.7486 24.88C74.3619 26.0267 75.2019 26.9333 76.2686 27.6C77.3619 28.24 78.5753 28.56 79.9086 28.56ZM106.954 32.16C104.794 32.16 102.887 31.6933 101.234 30.76C99.5803 29.8 98.2736 28.4933 97.3136 26.84C96.3803 25.16 95.9136 23.24 95.9136 21.08C95.9136 18.8933 96.3803 16.9733 97.3136 15.32C98.2736 13.64 99.5803 12.3333 101.234 11.4C102.887 10.44 104.794 9.96 106.954 9.96C109.087 9.96 110.98 10.44 112.634 11.4C114.287 12.3333 115.58 13.64 116.514 15.32C117.474 16.9733 117.954 18.8933 117.954 21.08C117.954 23.24 117.487 25.16 116.554 26.84C115.62 28.4933 114.327 29.8 112.674 30.76C111.02 31.6933 109.114 32.16 106.954 32.16ZM106.954 28.56C108.34 28.56 109.567 28.24 110.634 27.6C111.7 26.96 112.527 26.08 113.114 24.96C113.727 23.84 114.034 22.5467 114.034 21.08C114.034 19.6133 113.727 18.32 113.114 17.2C112.527 16.0533 111.7 15.16 110.634 14.52C109.567 13.88 108.34 13.56 106.954 13.56C105.567 13.56 104.34 13.88 103.274 14.52C102.207 15.16 101.367 16.0533 100.754 17.2C100.14 18.32 99.8336 19.6133 99.8336 21.08C99.8336 22.5467 100.14 23.84 100.754 24.96C101.367 26.08 102.207 26.96 103.274 27.6C104.34 28.24 105.567 28.56 106.954 28.56ZM133.946 32.16C131.786 32.16 129.879 31.6933 128.226 30.76C126.572 29.8 125.266 28.4933 124.306 26.84C123.372 25.16 122.906 23.24 122.906 21.08C122.906 18.8933 123.372 16.9733 124.306 15.32C125.266 13.64 126.572 12.3333 128.226 11.4C129.879 10.44 131.786 9.96 133.946 9.96C136.079 9.96 137.972 10.44 139.626 11.4C141.279 12.3333 142.572 13.64 143.506 15.32C144.466 16.9733 144.946 18.8933 144.946 21.08C144.946 23.24 144.479 25.16 143.546 26.84C142.612 28.4933 141.319 29.8 139.666 30.76C138.012 31.6933 136.106 32.16 133.946 32.16ZM133.946 28.56C135.332 28.56 136.559 28.24 137.626 27.6C138.692 26.96 139.519 26.08 140.106 24.96C140.719 23.84 141.026 22.5467 141.026 21.08C141.026 19.6133 140.719 18.32 140.106 17.2C139.519 16.0533 138.692 15.16 137.626 14.52C136.559 13.88 135.332 13.56 133.946 13.56C132.559 13.56 131.332 13.88 130.266 14.52C129.199 15.16 128.359 16.0533 127.746 17.2C127.132 18.32 126.826 19.6133 126.826 21.08C126.826 22.5467 127.132 23.84 127.746 24.96C128.359 26.08 129.199 26.96 130.266 27.6C131.332 28.24 132.559 28.56 133.946 28.56ZM152.978 32C152.391 32 151.911 31.8267 151.538 31.48C151.191 31.1067 151.018 30.6267 151.018 30.04V2.72C151.018 2.13333 151.191 1.66667 151.538 1.32C151.911 0.946666 152.391 0.759999 152.978 0.759999C153.565 0.759999 154.031 0.946666 154.378 1.32C154.751 1.66667 154.938 2.13333 154.938 2.72V19L164.658 10.32C165.058 9.94666 165.498 9.77333 165.978 9.8C166.485 9.82667 166.911 10.04 167.258 10.44C167.631 10.84 167.805 11.28 167.778 11.76C167.751 12.24 167.538 12.6667 167.138 13.04L159.778 19.6L167.538 29.12C167.885 29.5467 168.031 30.0133 167.978 30.52C167.951 31 167.711 31.4267 167.258 31.8C166.831 32.1467 166.351 32.2933 165.818 32.24C165.311 32.2133 164.885 31.9867 164.538 31.56L156.938 22.16L154.938 23.92V30.04C154.938 30.6267 154.751 31.1067 154.378 31.48C154.031 31.8267 153.565 32 152.978 32ZM176.231 32C175.645 32 175.151 31.8133 174.751 31.44C174.378 31.04 174.191 30.5467 174.191 29.96V12.16C174.191 11.5467 174.378 11.0533 174.751 10.68C175.151 10.3067 175.645 10.12 176.231 10.12C176.845 10.12 177.338 10.3067 177.711 10.68C178.085 11.0533 178.271 11.5467 178.271 12.16V29.96C178.271 30.5467 178.085 31.04 177.711 31.44C177.338 31.8133 176.845 32 176.231 32ZM176.231 6.56C175.511 6.56 174.885 6.30667 174.351 5.8C173.845 5.26667 173.591 4.64 173.591 3.92C173.591 3.2 173.845 2.58667 174.351 2.08C174.885 1.54667 175.511 1.28 176.231 1.28C176.951 1.28 177.565 1.54667 178.071 2.08C178.605 2.58667 178.871 3.2 178.871 3.92C178.871 4.64 178.605 5.26667 178.071 5.8C177.565 6.30667 176.951 6.56 176.231 6.56ZM187.902 32.04C187.315 32.04 186.822 31.8533 186.422 31.48C186.048 31.08 185.862 30.5867 185.862 30V12.16C185.862 11.5467 186.048 11.0533 186.422 10.68C186.822 10.3067 187.315 10.12 187.902 10.12C188.515 10.12 189.008 10.3067 189.382 10.68C189.755 11.0533 189.942 11.5467 189.942 12.16V12.6C190.768 11.7733 191.768 11.12 192.942 10.64C194.115 10.16 195.382 9.92 196.742 9.92C198.582 9.92 200.222 10.32 201.662 11.12C203.128 11.8933 204.275 13.04 205.102 14.56C205.955 16.08 206.382 17.9467 206.382 20.16V30C206.382 30.5867 206.182 31.08 205.782 31.48C205.408 31.8533 204.928 32.04 204.342 32.04C203.755 32.04 203.262 31.8533 202.862 31.48C202.488 31.08 202.302 30.5867 202.302 30V20.16C202.302 17.8933 201.688 16.24 200.462 15.2C199.262 14.1333 197.755 13.6 195.942 13.6C194.822 13.6 193.808 13.8267 192.902 14.28C191.995 14.7333 191.275 15.3467 190.742 16.12C190.208 16.8667 189.942 17.7333 189.942 18.72V30C189.942 30.5867 189.755 31.08 189.382 31.48C189.008 31.8533 188.515 32.04 187.902 32.04ZM222.247 32.16C220.247 32.16 218.474 31.6933 216.927 30.76C215.407 29.8 214.207 28.4933 213.327 26.84C212.447 25.16 212.007 23.24 212.007 21.08C212.007 18.8933 212.474 16.9733 213.407 15.32C214.367 13.64 215.674 12.3333 217.327 11.4C218.981 10.44 220.887 9.96 223.047 9.96C225.181 9.96 227.074 10.44 228.727 11.4C230.381 12.3333 231.674 13.64 232.607 15.32C233.567 16.9733 234.047 18.8933 234.047 21.08V29.72C234.047 31.8267 233.581 33.7333 232.647 35.44C231.714 37.1733 230.407 38.5467 228.727 39.56C227.074 40.5733 225.154 41.08 222.967 41.08C221.074 41.08 219.301 40.7067 217.647 39.96C215.994 39.2133 214.594 38.12 213.447 36.68C213.101 36.2267 212.967 35.76 213.047 35.28C213.154 34.8 213.421 34.4133 213.847 34.12C214.327 33.8 214.821 33.6933 215.327 33.8C215.861 33.9067 216.287 34.1733 216.607 34.6C217.327 35.5067 218.234 36.2133 219.327 36.72C220.421 37.2267 221.661 37.48 223.047 37.48C224.327 37.48 225.501 37.1733 226.567 36.56C227.661 35.9467 228.527 35.04 229.167 33.84C229.807 32.64 230.127 31.1733 230.127 29.44V27.48C229.301 28.92 228.207 30.0667 226.847 30.92C225.487 31.7467 223.954 32.16 222.247 32.16ZM223.047 28.56C224.434 28.56 225.661 28.24 226.727 27.6C227.794 26.96 228.621 26.08 229.207 24.96C229.821 23.84 230.127 22.5467 230.127 21.08C230.127 19.6133 229.821 18.32 229.207 17.2C228.621 16.0533 227.794 15.16 226.727 14.52C225.661 13.88 224.434 13.56 223.047 13.56C221.661 13.56 220.434 13.88 219.367 14.52C218.301 15.16 217.461 16.0533 216.847 17.2C216.234 18.32 215.927 19.6133 215.927 21.08C215.927 22.5467 216.234 23.84 216.847 24.96C217.461 26.08 218.301 26.96 219.367 27.6C220.434 28.24 221.661 28.56 223.047 28.56Z" fill="black"/>
</svg>
