<svg width="550" height="63" viewBox="0 0 550 63" version="1.1" xmlns="http://www.w3.org/2000/svg" xmlns:xlink="http://www.w3.org/1999/xlink">
<g id="Canvas" fill="none">
<g id="ROLLBOOKING" transform="translate(-205 -116)">
<path d="M 228.194 152.849L 210.638 152.849L 210.638 178L 205.491 178L 205.491 117.57L 225.123 117.57C 231.569 117.57 236.605 119.134 240.23 122.26C 243.855 125.387 245.667 129.759 245.667 135.375C 245.667 139.249 244.533 142.666 242.264 145.627C 239.995 148.588 236.951 150.635 233.133 151.77L 248.24 177.46L 248.24 178L 242.803 178L 228.194 152.849ZM 210.638 148.491L 226.285 148.491C 230.573 148.491 234.018 147.273 236.619 144.838C 239.22 142.403 240.521 139.249 240.521 135.375C 240.521 131.114 239.165 127.808 236.453 125.456C 233.742 123.104 229.937 121.928 225.04 121.928L 210.638 121.928L 210.638 148.491ZM 304.229 151.064C 304.229 156.625 303.261 161.509 301.324 165.715C 299.415 169.921 296.675 173.158 293.106 175.427C 289.537 177.696 285.414 178.83 280.738 178.83C 273.682 178.83 267.982 176.312 263.638 171.276C 259.294 166.213 257.122 159.392 257.122 150.815L 257.122 144.589C 257.122 139.083 258.09 134.213 260.027 129.98C 261.992 125.719 264.759 122.454 268.328 120.185C 271.897 117.889 276.006 116.74 280.655 116.74C 285.303 116.74 289.398 117.861 292.94 120.102C 296.509 122.343 299.262 125.511 301.199 129.606C 303.136 133.701 304.146 138.447 304.229 143.842L 304.229 151.064ZM 299.124 144.506C 299.124 137.229 297.478 131.529 294.185 127.407C 290.892 123.284 286.382 121.223 280.655 121.223C 275.038 121.223 270.556 123.298 267.208 127.448C 263.887 131.571 262.227 137.34 262.227 144.755L 262.227 151.064C 262.227 158.23 263.887 163.916 267.208 168.122C 270.528 172.3 275.038 174.389 280.738 174.389C 286.521 174.389 291.031 172.328 294.268 168.205C 297.505 164.055 299.124 158.286 299.124 150.898L 299.124 144.506ZM 322.242 173.684L 352.083 173.684L 352.083 178L 317.095 178L 317.095 117.57L 322.242 117.57L 322.242 173.684ZM 367.066 173.684L 396.907 173.684L 396.907 178L 361.919 178L 361.919 117.57L 367.066 117.57L 367.066 173.684Z" fill="#4F4F4F"/>
<path d="M 406.744 178L 406.744 117.57L 424.59 117.57C 431.065 117.57 435.976 118.912 439.324 121.596C 442.672 124.252 444.346 128.181 444.346 133.383C 444.346 136.51 443.488 139.235 441.773 141.56C 440.085 143.856 437.761 145.502 434.8 146.499C 438.314 147.273 441.137 149.003 443.267 151.687C 445.425 154.37 446.504 157.469 446.504 160.983C 446.504 166.324 444.775 170.502 441.316 173.518C 437.885 176.506 433.099 178 426.956 178L 406.744 178ZM 411.849 148.947L 411.849 173.684L 427.164 173.684C 431.535 173.684 434.994 172.577 437.54 170.363C 440.113 168.122 441.399 165.023 441.399 161.066C 441.399 157.331 440.168 154.384 437.706 152.226C 435.271 150.04 431.895 148.947 427.579 148.947L 411.849 148.947ZM 411.849 144.672L 425.794 144.672C 430.055 144.589 433.348 143.593 435.672 141.684C 438.024 139.747 439.2 136.939 439.2 133.259C 439.2 129.385 437.982 126.535 435.547 124.709C 433.14 122.855 429.488 121.928 424.59 121.928L 411.849 121.928L 411.849 144.672ZM 503.531 151.064C 503.531 156.625 502.562 161.509 500.625 165.715C 498.716 169.921 495.977 173.158 492.408 175.427C 488.838 177.696 484.716 178.83 480.04 178.83C 472.984 178.83 467.284 176.312 462.94 171.276C 458.596 166.213 456.424 159.392 456.424 150.815L 456.424 144.589C 456.424 139.083 457.392 134.213 459.329 129.98C 461.294 125.719 464.061 122.454 467.63 120.185C 471.199 117.889 475.308 116.74 479.957 116.74C 484.605 116.74 488.7 117.861 492.242 120.102C 495.811 122.343 498.564 125.511 500.501 129.606C 502.438 133.701 503.448 138.447 503.531 143.842L 503.531 151.064ZM 498.426 144.506C 498.426 137.229 496.779 131.529 493.487 127.407C 490.194 123.284 485.684 121.223 479.957 121.223C 474.34 121.223 469.857 123.298 466.509 127.448C 463.189 131.571 461.529 137.34 461.529 144.755L 461.529 151.064C 461.529 158.23 463.189 163.916 466.509 168.122C 469.83 172.3 474.34 174.389 480.04 174.389C 485.822 174.389 490.333 172.328 493.57 168.205C 496.807 164.055 498.426 158.286 498.426 150.898L 498.426 144.506ZM 561.055 151.064C 561.055 156.625 560.087 161.509 558.15 165.715C 556.241 169.921 553.501 173.158 549.932 175.427C 546.363 177.696 542.24 178.83 537.564 178.83C 530.508 178.83 524.808 176.312 520.464 171.276C 516.12 166.213 513.948 159.392 513.948 150.815L 513.948 144.589C 513.948 139.083 514.917 134.213 516.854 129.98C 518.818 125.719 521.585 122.454 525.154 120.185C 528.724 117.889 532.833 116.74 537.481 116.74C 542.129 116.74 546.224 117.861 549.766 120.102C 553.335 122.343 556.089 125.511 558.025 129.606C 559.962 133.701 560.972 138.447 561.055 143.842L 561.055 151.064ZM 555.95 144.506C 555.95 137.229 554.304 131.529 551.011 127.407C 547.719 123.284 543.208 121.223 537.481 121.223C 531.864 121.223 527.382 123.298 524.034 127.448C 520.713 131.571 519.053 137.34 519.053 144.755L 519.053 151.064C 519.053 158.23 520.713 163.916 524.034 168.122C 527.354 172.3 531.864 174.389 537.564 174.389C 543.347 174.389 547.857 172.328 551.094 168.205C 554.332 164.055 555.95 158.286 555.95 150.898L 555.95 144.506ZM 587.535 147.993L 579.026 156.376L 579.026 178L 573.921 178L 573.921 117.57L 579.026 117.57L 579.026 150.151L 609.988 117.57L 616.421 117.57L 591.104 144.465L 618.372 178L 612.146 178L 587.535 147.993ZM 633.77 178L 628.665 178L 628.665 117.57L 633.77 117.57L 633.77 178ZM 695.196 178L 690.091 178L 655.352 126.286L 655.352 178L 650.206 178L 650.206 117.57L 655.352 117.57L 690.132 169.326L 690.132 117.57L 695.196 117.57L 695.196 178ZM 754.173 170.82C 752.402 173.338 749.621 175.302 745.831 176.713C 742.068 178.125 737.848 178.83 733.172 178.83C 728.44 178.83 724.235 177.696 720.555 175.427C 716.875 173.158 714.025 169.948 712.005 165.798C 709.985 161.647 708.961 156.888 708.934 151.521L 708.934 143.884C 708.934 135.5 711.05 128.887 715.284 124.045C 719.517 119.175 725.203 116.74 732.342 116.74C 738.567 116.74 743.576 118.331 747.366 121.513C 751.157 124.667 753.412 129.025 754.131 134.587L 749.026 134.587C 748.279 130.16 746.467 126.812 743.589 124.543C 740.739 122.246 737.004 121.098 732.383 121.098C 726.739 121.098 722.27 123.104 718.978 127.116C 715.685 131.128 714.039 136.787 714.039 144.091L 714.039 151.23C 714.039 155.823 714.813 159.89 716.363 163.432C 717.94 166.946 720.181 169.672 723.086 171.608C 726.019 173.545 729.381 174.514 733.172 174.514C 737.571 174.514 741.348 173.822 744.502 172.438C 746.55 171.525 748.072 170.46 749.068 169.243L 749.068 153.637L 732.84 153.637L 732.84 149.321L 754.173 149.321L 754.173 170.82Z" fill="#828282"/>
</g>
</g>
</svg>
