<svg width="598" height="63" viewBox="0 0 598 63" version="1.1" xmlns="http://www.w3.org/2000/svg" xmlns:xlink="http://www.w3.org/1999/xlink">
<title>ROLLBOOKING</title>
<desc>Created using Figma</desc>
<g id="Canvas" transform="translate(-207 284)">
<g id="ROLLBOOKING">
<use xlink:href="#path0_fill" transform="translate(26 -403)" fill="#000000" fill-opacity="0.75"/>
</g>
</g>
<defs>
<path id="path0_fill" d="M 191.421 148.544L 198.311 148.544C 202.932 148.544 206.28 147.686 208.355 145.971C 210.43 144.255 211.468 141.71 211.468 138.334C 211.468 134.903 210.347 132.44 208.106 130.946C 205.865 129.452 202.489 128.705 197.979 128.705L 191.421 128.705L 191.421 148.544ZM 191.421 156.762L 191.421 181L 181.502 181L 181.502 120.321L 198.643 120.321C 206.473 120.321 212.27 121.788 216.033 124.721C 219.796 127.654 221.678 132.081 221.678 138.002C 221.678 145.556 217.749 150.937 209.891 154.147L 227.032 181L 215.743 181L 201.216 156.762L 191.421 156.762ZM 289.744 150.578C 289.744 160.456 287.268 168.134 282.315 173.612C 277.39 179.091 270.403 181.83 261.355 181.83C 252.197 181.83 245.155 179.118 240.23 173.695C 235.333 168.244 232.884 160.511 232.884 150.495C 232.884 140.478 235.346 132.786 240.271 127.418C 245.224 122.051 252.28 119.367 261.438 119.367C 270.459 119.367 277.431 122.092 282.356 127.543C 287.282 132.994 289.744 140.672 289.744 150.578ZM 243.426 150.578C 243.426 158.048 244.934 163.721 247.95 167.594C 250.966 171.44 255.434 173.363 261.355 173.363C 267.249 173.363 271.69 171.454 274.678 167.636C 277.694 163.817 279.202 158.131 279.202 150.578C 279.202 143.135 277.708 137.49 274.72 133.644C 271.759 129.798 267.332 127.875 261.438 127.875C 255.49 127.875 250.993 129.798 247.95 133.644C 244.934 137.49 243.426 143.135 243.426 150.578ZM 302.776 181L 302.776 120.321L 312.696 120.321L 312.696 172.492L 338.387 172.492L 338.387 181L 302.776 181ZM 348.846 181L 348.846 120.321L 358.765 120.321L 358.765 172.492L 384.456 172.492L 384.456 181L 348.846 181ZM 394.915 120.321L 412.928 120.321C 421.284 120.321 427.316 121.539 431.023 123.974C 434.759 126.409 436.626 130.255 436.626 135.512C 436.626 139.053 435.713 142 433.887 144.352C 432.061 146.704 429.432 148.184 426.001 148.793L 426.001 149.208C 430.263 150.01 433.389 151.601 435.381 153.981C 437.401 156.333 438.411 159.529 438.411 163.568C 438.411 169.019 436.502 173.294 432.684 176.393C 428.893 179.464 423.608 181 416.829 181L 394.915 181L 394.915 120.321ZM 404.834 145.39L 414.38 145.39C 418.531 145.39 421.561 144.739 423.47 143.439C 425.379 142.111 426.333 139.87 426.333 136.715C 426.333 133.865 425.296 131.804 423.221 130.531C 421.173 129.258 417.908 128.622 413.426 128.622L 404.834 128.622L 404.834 145.39ZM 404.834 153.441L 404.834 172.658L 415.376 172.658C 419.527 172.658 422.653 171.869 424.756 170.292C 426.887 168.687 427.952 166.169 427.952 162.738C 427.952 159.584 426.873 157.246 424.715 155.724C 422.557 154.202 419.278 153.441 414.878 153.441L 404.834 153.441ZM 504.9 150.578C 504.9 160.456 502.424 168.134 497.471 173.612C 492.546 179.091 485.56 181.83 476.512 181.83C 467.353 181.83 460.311 179.118 455.386 173.695C 450.489 168.244 448.04 160.511 448.04 150.495C 448.04 140.478 450.503 132.786 455.428 127.418C 460.381 122.051 467.436 119.367 476.595 119.367C 485.615 119.367 492.588 122.092 497.513 127.543C 502.438 132.994 504.9 140.672 504.9 150.578ZM 458.582 150.578C 458.582 158.048 460.09 163.721 463.106 167.594C 466.122 171.44 470.59 173.363 476.512 173.363C 482.405 173.363 486.846 171.454 489.834 167.636C 492.85 163.817 494.358 158.131 494.358 150.578C 494.358 143.135 492.864 137.49 489.876 133.644C 486.915 129.798 482.488 127.875 476.595 127.875C 470.646 127.875 466.15 129.798 463.106 133.644C 460.09 137.49 458.582 143.135 458.582 150.578ZM 571.805 150.578C 571.805 160.456 569.328 168.134 564.375 173.612C 559.45 179.091 552.464 181.83 543.416 181.83C 534.257 181.83 527.216 179.118 522.291 173.695C 517.393 168.244 514.944 160.511 514.944 150.495C 514.944 140.478 517.407 132.786 522.332 127.418C 527.285 122.051 534.34 119.367 543.499 119.367C 552.519 119.367 559.492 122.092 564.417 127.543C 569.342 132.994 571.805 140.672 571.805 150.578ZM 525.486 150.578C 525.486 158.048 526.994 163.721 530.01 167.594C 533.026 171.44 537.495 173.363 543.416 173.363C 549.31 173.363 553.75 171.454 556.739 167.636C 559.755 163.817 561.263 158.131 561.263 150.578C 561.263 143.135 559.769 137.49 556.78 133.644C 553.82 129.798 549.393 127.875 543.499 127.875C 537.55 127.875 533.054 129.798 530.01 133.644C 526.994 137.49 525.486 143.135 525.486 150.578ZM 631.155 181L 619.659 181L 600.608 153.524L 594.756 158.297L 594.756 181L 584.837 181L 584.837 120.321L 594.756 120.321L 594.756 149.291C 597.468 145.971 600.166 142.775 602.85 139.704L 619.244 120.321L 630.533 120.321C 619.935 132.772 612.34 141.64 607.747 146.925L 631.155 181ZM 639.207 181L 639.207 120.321L 649.126 120.321L 649.126 181L 639.207 181ZM 715.74 181L 703.58 181L 673.738 132.648L 673.406 132.648L 673.614 135.346C 674.001 140.492 674.195 145.196 674.195 149.457L 674.195 181L 665.188 181L 665.188 120.321L 677.225 120.321L 706.983 168.424L 707.232 168.424C 707.177 167.788 707.066 165.478 706.9 161.493C 706.734 157.481 706.651 154.354 706.651 152.113L 706.651 120.321L 715.74 120.321L 715.74 181ZM 756.58 148.087L 778.909 148.087L 778.909 178.551C 775.257 179.741 771.743 180.585 768.367 181.083C 765.019 181.581 761.395 181.83 757.493 181.83C 748.307 181.83 741.224 179.118 736.243 173.695C 731.263 168.244 728.772 160.566 728.772 150.661C 728.772 140.893 731.581 133.257 737.198 127.75C 742.815 122.217 750.548 119.45 760.398 119.45C 766.735 119.45 772.739 120.667 778.411 123.102L 774.925 131.361C 770 129.092 765.075 127.958 760.149 127.958C 753.675 127.958 748.556 129.992 744.793 134.059C 741.03 138.126 739.148 143.688 739.148 150.744C 739.148 158.159 740.836 163.804 744.212 167.677C 747.615 171.523 752.499 173.446 758.863 173.446C 762.072 173.446 765.503 173.045 769.156 172.243L 769.156 156.596L 756.58 156.596L 756.58 148.087Z"/>
</defs>
</svg>
